<svg height="1630" width="720" xmlns="http://www.w3.org/2000/svg">
<rect height="1630" fill="#555" width="720"></rect>
<text fill="#7f7" font-family="Courier New" font-size="12" xml:space="preserve">
<tspan x="10" y="26">16 megabytes installed</tspan>
<tspan x="10" y="42"></tspan>
<tspan x="10" y="58">node_modules</tspan>
<tspan x="10" y="74">└─┬ git-it@1.6.9 </tspan>
<tspan x="10" y="90">  ├─┬ cheerio@0.17.0 </tspan>
<tspan x="10" y="106">  │ ├─┬ CSSselect@0.4.1 </tspan>
<tspan x="10" y="122">  │ │ ├── CSSwhat@0.4.7 </tspan>
<tspan x="10" y="138">  │ │ └── domutils@1.4.3 </tspan>
<tspan x="10" y="154">  │ ├─┬ dom-serializer@0.0.1 </tspan>
<tspan x="10" y="170">  │ │ └── domelementtype@1.1.3 </tspan>
<tspan x="10" y="186">  │ ├── entities@1.1.1 </tspan>
<tspan x="10" y="202">  │ ├─┬ htmlparser2@3.7.3 </tspan>
<tspan x="10" y="218">  │ │ ├── domelementtype@1.3.0 </tspan>
<tspan x="10" y="234">  │ │ ├── domhandler@2.2.1 </tspan>
<tspan x="10" y="250">  │ │ ├── domutils@1.5.1 </tspan>
<tspan x="10" y="266">  │ │ ├── entities@1.0.0 </tspan>
<tspan x="10" y="282">  │ │ └─┬ readable-stream@1.1.14 </tspan>
<tspan x="10" y="298">  │ │   ├── core-util-is@1.0.2 </tspan>
<tspan x="10" y="314">  │ │   ├── isarray@0.0.1 </tspan>
<tspan x="10" y="330">  │ │   └── string_decoder@0.10.31 </tspan>
<tspan x="10" y="346">  │ └── lodash@2.4.2 </tspan>
<tspan x="10" y="362">  ├─┬ concat-stream@1.2.1 </tspan>
<tspan x="10" y="378">  │ └─┬ bops@0.0.6 </tspan>
<tspan x="10" y="394">  │   ├── base64-js@0.0.2 </tspan>
<tspan x="10" y="410">  │   └── to-utf8@0.0.1 </tspan>
<tspan x="10" y="426">  ├─┬ ecstatic@0.5.8 </tspan>
<tspan x="10" y="442">  │ ├── he@0.5.0 </tspan>
<tspan x="10" y="458">  │ ├── mime@1.3.4 </tspan>
<tspan x="10" y="474">  │ └── minimist@1.2.0 </tspan>
<tspan x="10" y="490">  ├─┬ github-oauth@0.0.4 </tspan>
<tspan x="10" y="506">  │ └─┬ request@2.12.0 </tspan>
<tspan x="10" y="522">  │   ├─┬ form-data@0.0.3 </tspan>
<tspan x="10" y="538">  │   │ ├── async@0.1.9 </tspan>
<tspan x="10" y="554">  │   │ └─┬ combined-stream@0.0.3 </tspan>
<tspan x="10" y="570">  │   │   └── delayed-stream@0.0.5 </tspan>
<tspan x="10" y="586">  │   └── mime@1.2.7 </tspan>
<tspan x="10" y="602">  ├─┬ glob@3.2.11 </tspan>
<tspan x="10" y="618">  │ ├── inherits@2.0.3 </tspan>
<tspan x="10" y="634">  │ └─┬ minimatch@0.3.0 </tspan>
<tspan x="10" y="650">  │   ├── lru-cache@2.7.3 </tspan>
<tspan x="10" y="666">  │   └── sigmund@1.0.1 </tspan>
<tspan x="10" y="682">  ├─┬ handlebars@2.0.0 </tspan>
<tspan x="10" y="698">  │ ├─┬ optimist@0.3.7 </tspan>
<tspan x="10" y="714">  │ │ └── wordwrap@0.0.3 </tspan>
<tspan x="10" y="730">  │ └─┬ uglify-js@2.3.6 </tspan>
<tspan x="10" y="746">  │   ├── async@0.2.10 </tspan>
<tspan x="10" y="762">  │   └─┬ source-map@0.1.43 </tspan>
<tspan x="10" y="778">  │     └── amdefine@1.0.1 </tspan>
<tspan x="10" y="794">  ├── marked@0.3.6 </tspan>
<tspan x="10" y="810">  ├─┬ request@2.30.0 </tspan>
<tspan x="10" y="826">  │ ├── aws-sign2@0.5.0 </tspan>
<tspan x="10" y="842">  │ ├── forever-agent@0.5.2 </tspan>
<tspan x="10" y="858">  │ ├─┬ form-data@0.1.4 </tspan>
<tspan x="10" y="874">  │ │ ├── async@0.9.2 </tspan>
<tspan x="10" y="890">  │ │ ├─┬ combined-stream@0.0.7 </tspan>
<tspan x="10" y="906">  │ │ │ └── delayed-stream@0.0.5 </tspan>
<tspan x="10" y="922">  │ │ └── mime@1.2.11 </tspan>
<tspan x="10" y="938">  │ ├─┬ hawk@1.0.0 </tspan>
<tspan x="10" y="954">  │ │ ├── boom@0.4.2 </tspan>
<tspan x="10" y="970">  │ │ ├── cryptiles@0.2.2 </tspan>
<tspan x="10" y="986">  │ │ ├── hoek@0.9.1 </tspan>
<tspan x="10" y="1002">  │ │ └── sntp@0.2.4 </tspan>
<tspan x="10" y="1018">  │ ├─┬ http-signature@0.10.1 </tspan>
<tspan x="10" y="1034">  │ │ ├── asn1@0.1.11 </tspan>
<tspan x="10" y="1050">  │ │ ├── assert-plus@0.1.5 </tspan>
<tspan x="10" y="1066">  │ │ └── ctype@0.5.3 </tspan>
<tspan x="10" y="1082">  │ ├── json-stringify-safe@5.0.1 </tspan>
<tspan x="10" y="1098">  │ ├── mime@1.2.11 </tspan>
<tspan x="10" y="1114">  │ ├── node-uuid@1.4.8 </tspan>
<tspan x="10" y="1130">  │ ├── oauth-sign@0.3.0 </tspan>
<tspan x="10" y="1146">  │ ├── qs@0.6.6 </tspan>
<tspan x="10" y="1162">  │ ├─┬ tough-cookie@0.9.15 </tspan>
<tspan x="10" y="1178">  │ │ └── punycode@2.1.0 </tspan>
<tspan x="10" y="1194">  │ └── tunnel-agent@0.3.0 </tspan>
<tspan x="10" y="1210">  └─┬ workshopper-jlord@0.0.6 </tspan>
<tspan x="10" y="1226">    ├─┬ colors-tmpl@0.1.1 </tspan>
<tspan x="10" y="1242">    │ └── colors@0.6.2 </tspan>
<tspan x="10" y="1258">    ├── map-async@0.1.1 </tspan>
<tspan x="10" y="1274">    ├── mkdirp@0.3.5 </tspan>
<tspan x="10" y="1290">    ├─┬ msee@0.1.2 </tspan>
<tspan x="10" y="1306">    │ ├─┬ cardinal@0.5.0 </tspan>
<tspan x="10" y="1322">    │ │ ├── ansicolors@0.2.1 </tspan>
<tspan x="10" y="1338">    │ │ └─┬ redeyed@0.5.0 </tspan>
<tspan x="10" y="1354">    │ │   └── esprima-fb@12001.1.0-dev-harmony-fb </tspan>
<tspan x="10" y="1370">    │ ├─┬ chalk@0.4.0 </tspan>
<tspan x="10" y="1386">    │ │ ├── ansi-styles@1.0.0 </tspan>
<tspan x="10" y="1402">    │ │ ├── has-color@0.1.7 </tspan>
<tspan x="10" y="1418">    │ │ └── strip-ansi@0.1.1 </tspan>
<tspan x="10" y="1434">    │ └─┬ nopt@2.1.2 </tspan>
<tspan x="10" y="1450">    │   └── abbrev@1.1.0 </tspan>
<tspan x="10" y="1466">    ├─┬ optimist@0.6.1 </tspan>
<tspan x="10" y="1482">    │ └── minimist@0.0.10 </tspan>
<tspan x="10" y="1498">    ├── split@0.2.10 </tspan>
<tspan x="10" y="1514">    ├─┬ terminal-menu@0.2.0 </tspan>
<tspan x="10" y="1530">    │ ├── charm@0.1.2 </tspan>
<tspan x="10" y="1546">    │ └── resumer@0.0.0 </tspan>
<tspan x="10" y="1562">    ├── through@2.3.8 </tspan>
<tspan x="10" y="1578">    ├── tuple-stream@0.0.2 </tspan>
<tspan x="10" y="1594">    └─┬ xtend@2.1.2 </tspan>
<tspan x="10" y="1610">      └── object-keys@0.4.0</tspan>
</text>
</svg>
